<svg version="1.1" preserveAspectRatio="none" xmlns="http://www.w3.org/2000/svg" width="500" height="500" viewBox="0 0 500 500"><rect width="100%" height="100%" fill="#005F40" fill-opacity="1"/><svg viewBox="54.266 47.3446 379.4095 251.8661" width="333" height="221.05775237573124" x="83.5px" y="139.4711px" xmlns="http://www.w3.org/2000/svg" xmlns:xlink="http://www.w3.org/1999/xlink" preserveAspectRatio="none"><defs></defs><style>.companyName {fill:#EDEDED;fill-opacity:1;}.icon1 {fill:#EDEDED;fill-opacity:1;}.icon2 {fill:#163D26;fill-opacity:1;}.icon3 {fill:#9C9C9C;fill-opacity:1;}.icon3-str {stroke:#9C9C9C;stroke-opacity:1;}</style><g opacity="1" transform="rotate(0 54.266 239.2107)">
<svg width="379.4095" height="60" x="54.266" y="239.2107" version="1.1" preserveAspectRatio="none" viewBox="2.52 -32.4 254.19999999999996 40.199999999999996">
  <g transform="matrix(1 0 0 1 0 0)" class="companyName"><path id="id-D6z1nYkh15" d="M2.52 0L2.52-32.40L9.08-32.40L9.08 0L2.52 0Z M13.64 0L13.64-23.12L19.64-23.12L19.64-20.80Q22.44-23.52 25.24-23.52L25.24-23.52Q27.24-23.52 28.30-22.04Q29.36-20.56 29.36-18.24L29.36-18.24L29.36 0L23.32 0L23.32-17.28Q23.32-18.24 23-18.70Q22.68-19.16 21.92-19.16L21.92-19.16Q21-19.16 19.64-18.20L19.64-18.20L19.64 0L13.64 0Z M34.28 0L34.28-19L31.96-19L31.96-23.12L34.28-23.12L34.28-24.72Q34.28-27.04 34.72-28.48Q35.16-29.92 36.46-30.72Q37.76-31.52 40.32-31.52L40.32-31.52Q41.96-31.52 43.40-31.32L43.40-31.32L43.40-26.84Q42.40-27.04 41.96-27.04L41.96-27.04Q40.32-27.04 40.32-25L40.32-25L40.32-23.12L43.40-23.12L43.40-19L40.32-19L40.32 0L34.28 0Z M53.20 0.40Q49.44 0.40 47.42-1.60Q45.40-3.60 45.40-7.40L45.40-7.40L45.40-15.72Q45.40-19.52 47.42-21.52Q49.44-23.52 53.20-23.52L53.20-23.52Q56.96-23.52 58.98-21.52Q61-19.52 61-15.72L61-15.72L61-7.40Q61-3.60 58.98-1.60Q56.96 0.40 53.20 0.40L53.20 0.40ZM53.24-3.68Q54.28-3.68 54.66-4.50Q55.04-5.32 55.04-6.96L55.04-6.96L55.04-16.12Q55.04-17.76 54.66-18.60Q54.28-19.44 53.24-19.44L53.24-19.44Q52.16-19.44 51.76-18.58Q51.36-17.72 51.36-16.12L51.36-16.12L51.36-6.96Q51.36-5.36 51.76-4.52Q52.16-3.68 53.24-3.68L53.24-3.68Z M64.80 0L64.80-23.12L70.84-23.12L70.84-19.40Q72.04-21.48 73.18-22.44Q74.32-23.40 75.84-23.40L75.84-23.40Q76.20-23.40 76.76-23.32L76.76-23.32L76.76-17.16Q75.72-17.64 74.60-17.64L74.60-17.64Q72.40-17.64 70.84-15.40L70.84-15.40L70.84 0L64.80 0Z M79.52 0L79.52-23.12L85.40-23.12L85.40-21.20Q87.72-23.56 90.84-23.56L90.84-23.56Q92.20-23.56 93.22-22.86Q94.24-22.16 94.76-20.76L94.76-20.76Q97.24-23.56 100.64-23.56L100.64-23.56Q102.64-23.56 103.82-22.10Q105-20.64 105-18L105-18L105 0L99.16 0L99.16-17.40Q99.16-18.52 98.78-18.98Q98.40-19.44 97.64-19.44L97.64-19.44Q97.12-19.44 96.46-19.16Q95.80-18.88 95.20-18.36L95.20-18.36L95.20-18L95.20 0L89.36 0L89.36-17.40Q89.36-18.52 88.98-18.98Q88.60-19.44 87.84-19.44L87.84-19.44Q87.32-19.44 86.66-19.16Q86-18.88 85.40-18.36L85.40-18.36L85.40 0L79.52 0Z M113.64 0.40Q112.04 0.40 110.84-0.40Q109.64-1.20 109.02-2.50Q108.40-3.80 108.40-5.20L108.40-5.20Q108.40-7.88 109.72-9.60Q111.04-11.32 112.90-12.28Q114.76-13.24 117.84-14.36L117.84-14.36L117.84-16.52Q117.84-17.76 117.50-18.40Q117.16-19.04 116.28-19.04L116.28-19.04Q115.40-19.04 115.04-18.48Q114.68-17.92 114.60-16.88L114.60-16.88L114.48-15.28L108.80-15.52Q108.96-19.64 110.92-21.58Q112.88-23.52 116.80-23.52L116.80-23.52Q120.20-23.52 121.92-21.64Q123.64-19.76 123.64-16.48L123.64-16.48L123.64-5.72Q123.64-3 124.04 0L124.04 0L118.64 0Q118.48-1.16 118.12-3.32L118.12-3.32Q117.64-1.72 116.50-0.66Q115.36 0.40 113.64 0.40L113.64 0.40ZM115.80-3.88Q116.40-3.88 116.94-4.28Q117.48-4.68 117.84-5.20L117.84-5.20L117.84-11.56Q115.96-10.48 114.96-9.32Q113.96-8.16 113.96-6.48L113.96-6.48Q113.96-5.24 114.44-4.56Q114.92-3.88 115.80-3.88L115.80-3.88Z M134.44 0.28Q130.96 0.28 129.62-1.28Q128.28-2.84 128.28-6.04L128.28-6.04L128.28-19.16L126-19.16L126-23.12L128.28-23.12L128.28-30.08L134.40-30.08L134.40-23.12L137.76-23.12L137.76-19.16L134.40-19.16L134.40-6.64Q134.40-4.60 136.44-4.60L136.44-4.60Q137.52-4.60 138.16-4.76L138.16-4.76L138.16-0.04Q136.04 0.28 134.44 0.28L134.44 0.28Z M141.32-26.92L141.32-31.44L147.40-31.44L147.40-26.92L141.32-26.92ZM141.36 0L141.36-23.12L147.40-23.12L147.40 0L141.36 0Z M158.84 0.40Q155.04 0.40 153.08-1.72Q151.12-3.84 151.12-7.68L151.12-7.68L151.12-15.48Q151.12-19.36 153.08-21.44Q155.04-23.52 158.84-23.52L158.84-23.52Q162.56-23.52 164.46-21.76Q166.36-20 166.36-16.48L166.36-16.48L166.36-14.28L160.56-14.28L160.56-16.64Q160.56-18.16 160.16-18.74Q159.76-19.32 158.88-19.32L158.88-19.32Q157.92-19.32 157.54-18.60Q157.16-17.88 157.16-16.08L157.16-16.08L157.16-6.96Q157.16-5.16 157.58-4.48Q158.00-3.80 158.88-3.80L158.88-3.80Q159.80-3.80 160.18-4.44Q160.56-5.08 160.56-6.48L160.56-6.48L160.56-9.28L166.36-9.28L166.36-6.72Q166.36-3.24 164.44-1.42Q162.52 0.40 158.84 0.40L158.84 0.40Z M176.56 0.40Q173.56 0.40 171.60-1.06Q169.64-2.52 168.60-5.56L168.60-5.56L172.84-7.32Q174.04-3.76 176.24-3.76L176.24-3.76Q177.08-3.76 177.50-4.14Q177.92-4.52 177.92-5.20L177.92-5.20Q177.92-6.12 177.34-6.84Q176.76-7.56 175.04-9.04L175.04-9.04L172.88-10.88Q170.96-12.52 170.04-13.92Q169.12-15.32 169.12-17.28L169.12-17.28Q169.12-19.12 170.04-20.54Q170.96-21.96 172.54-22.74Q174.12-23.52 176-23.52L176-23.52Q178.80-23.52 180.62-21.94Q182.44-20.36 183.12-17.52L183.12-17.52L179.20-15.76Q178.84-17.20 178.04-18.22Q177.24-19.24 176.16-19.24L176.16-19.24Q175.44-19.24 175-18.82Q174.56-18.40 174.56-17.72L174.56-17.72Q174.56-17.04 175.24-16.26Q175.92-15.48 177.36-14.24L177.36-14.24L179.52-12.32Q181.40-10.72 182.46-9.24Q183.52-7.76 183.52-5.80L183.52-5.80Q183.52-3.88 182.58-2.48Q181.64-1.08 180.04-0.34Q178.44 0.40 176.56 0.40L176.56 0.40Z M186.72 0L186.72-32.40L194.96-32.40Q199.68-32.40 202.28-30.58Q204.88-28.76 204.88-24L204.88-24Q204.88-21.12 203.66-19.46Q202.44-17.80 200.16-17.40L200.16-17.40Q203-17 204.42-15Q205.84-13 205.84-9.52L205.84-9.52Q205.84 0 196.40 0L196.40 0L186.72 0ZM193.28-19.32L194.96-19.32Q197.36-19.32 198.24-20.40Q199.12-21.48 199.12-23.84L199.12-23.84Q199.12-26 198-26.94Q196.88-27.88 194.52-27.88L194.52-27.88L193.28-27.88L193.28-19.32ZM193.28-4.64L195.16-4.64Q197.56-4.64 198.54-5.84Q199.52-7.04 199.52-9.64L199.52-9.64Q199.52-12.44 198.50-13.66Q197.48-14.88 195.04-14.88L195.04-14.88L193.28-14.88L193.28-4.64Z M209.64 0L209.64-32.40L215.64-32.40L215.64 0L209.64 0Z M227.24 0.40Q223.48 0.40 221.46-1.60Q219.44-3.60 219.44-7.40L219.44-7.40L219.44-15.72Q219.44-19.52 221.46-21.52Q223.48-23.52 227.24-23.52L227.24-23.52Q231-23.52 233.02-21.52Q235.04-19.52 235.04-15.72L235.04-15.72L235.04-7.40Q235.04-3.60 233.02-1.60Q231 0.40 227.24 0.40L227.24 0.40ZM227.28-3.68Q228.32-3.68 228.70-4.50Q229.08-5.32 229.08-6.96L229.08-6.96L229.08-16.12Q229.08-17.76 228.70-18.60Q228.32-19.44 227.28-19.44L227.28-19.44Q226.20-19.44 225.80-18.58Q225.40-17.72 225.40-16.12L225.40-16.12L225.40-6.96Q225.40-5.36 225.80-4.52Q226.20-3.68 227.28-3.68L227.28-3.68Z M245.92 7.80Q242.08 7.80 239.86 6.64Q237.64 5.48 237.64 3.20L237.64 3.20Q237.64 0.16 241.20-1.40L241.20-1.40Q238.16-2.20 238.16-4.80L238.16-4.80Q238.16-6.08 238.78-7.08Q239.40-8.08 240.72-9.24L240.72-9.24Q239.56-10.24 238.98-11.74Q238.40-13.24 238.40-15.40L238.40-15.40Q238.40-19.36 240.42-21.44Q242.44-23.52 246.28-23.52L246.28-23.52Q249.84-23.52 251.60-21.52L251.60-21.52Q252-22.20 252.76-22.84Q253.52-23.48 254.48-23.92L254.48-23.92L255.28-24.32L256.72-21.28Q256.12-21.08 254.92-20.58Q253.72-20.08 253.04-19.68L253.04-19.68Q253.44-18.84 253.66-17.68Q253.88-16.52 253.88-15.36L253.88-15.36Q253.88-11.56 251.98-9.48Q250.08-7.40 246.28-7.40L246.28-7.40Q244.28-7.40 242.72-7.96L242.72-7.96Q242.08-7.16 242.08-6.48L242.08-6.48Q242.08-6 242.56-5.72Q243.04-5.44 244.20-5.32L244.20-5.32L249.76-4.72Q255.44-4.08 255.44 1.24L255.44 1.24Q255.44 4.56 253.18 6.18Q250.92 7.80 245.92 7.80L245.92 7.80ZM246.28-11.08Q247.48-11.08 247.88-12.02Q248.28-12.96 248.28-15.40L248.28-15.40Q248.28-17.88 247.88-18.86Q247.48-19.84 246.28-19.84L246.28-19.84Q245.08-19.84 244.66-18.84Q244.24-17.84 244.24-15.40L244.24-15.40Q244.24-13.08 244.66-12.08Q245.08-11.08 246.28-11.08L246.28-11.08ZM246.68 3.40Q249 3.40 250.10 2.98Q251.20 2.56 251.20 1.48L251.20 1.48Q251.20 0.56 250.48 0.14Q249.76-0.28 247.80-0.44L247.80-0.44L243.64-0.88Q242.96-0.28 242.58 0.26Q242.20 0.80 242.20 1.44L242.20 1.44Q242.20 2.44 243.24 2.92Q244.28 3.40 246.68 3.40L246.68 3.40Z"/></g>
</svg>
</g><g opacity="1" transform="rotate(0 168.0888 47.3446)">
<svg width="151.7639" height="151.8661" x="168.0888" y="47.3446" version="1.1" preserveAspectRatio="none" viewBox="20.095836639404297 20.00002098083496 159.8941650390625 160.0019073486328">
  <g transform="matrix(1 0 0 1 0 0)"><g><path d="M52.779 167.185c-.986-2.703-1.885-7.829-5.239-9.758l.062-.028c-.13-.069-.465-.019-.481-.135a25.74 25.74 0 00-.712-.097c-.061.052-.14.122-.22.193l-.091-.005c-.048-.008-.03-.091-.254-.14-2.2 6.095-2.289-4.596-5.821-.979-.543-.259-1.385-.376-2.255-1.415.382-3.896 4.027-9.28 1.575-13.992l-.077-.033.074.369c-.171-.308-.806-.435-1.302-1.55l-.147.124c-.229-.166-.301-.326-.302-.495a16.126 16.126 0 00-.408-.217c-.775.946-.637-.155-1.93 5.263l-.096-.029c.004-.384.723-2.467.455-4.149-.328-.44-.183-.411-.81-1.332-.207.142-.423.294-.654.464.066.008.116.015.167.023.013.203-.052.336-.364.318-.033.154-.066.307-.103.47-.095-.033-.161-.007-.2.061-.051.388.672-4.205-.653-1.667-.34-.396-.958-3.269-1.594-.764-.524-2.306-3.115 1.03-4.102 4.235.529-.624.774-6.721-1.582-.269.05-.283.091-.561-.006-.773l-.266.208a4.18 4.18 0 00-.352-.082l.052-.057c-.771.489-1.578 1.076-1.976 3.029-.339.271.013.181-.047.32a4.435 4.435 0 01-.064.024c-2.553 7.429-4.206 18.34-1.763 27.382a1.257 1.257 0 01-.05.035c.068.134.31.11.288.3.137.089.275.175.454.278l.203-.273.06.023.071.221.062.047c2.39-7.775.917 6.489 3.661 2.57 1.076.316.416 4.085 2.417 3.024.259.152-.021.073 1.29.564-.064-.067-.128-.134-.196-.208.368.188.903.021 2.228.726l.177-.096c.366.064.507.148.55.249.211.024.422.047.631.068.711-.444 1.061-.33 1.428-3.418l.144.003c.053.198-.352 1.804.384 2.535.727-.014.652 1.155 2.288.297l-.241.012c-.069-.119-.01-.207.437-.243.008-.097.018-.193.03-.295.143.005.23-.02.268-.066-.049.307.409 2.538 1.338.893.483.069 2.09 1.918 2.446.215 1.291 1.197 3.86-.698 4.759-3.132-.688 1.462 1.166 3.517 2.307-.077-.001.176.01.347.201.458.165-.023.09-.212.844-.167l-.06.041c.557-.266 1.886-.59 2.047-2.097.412-.212-.063-.105-.013-.197l.084-.024c.777-1.733 1.162-3.653.949-6.783z" data-color="1" class="icon1"></path><path d="M65.302 44.422c.88 5.315.839 13.091 3.864 19.369a8.736 8.736 0 01-.044.052c.094.143.333.065.346.293.155.076.31.149.51.234.043-.099.099-.229.155-.363l.065.015.112.245.071.043c.545.501.292-6.675 1.412-2.131.047-.862 1.525 10.077 2.761 4.398.843.379 2.985 6.991 2.912 1.322 5.018 9.824 1.489-24.13 4.683-4.758 1.793 4.723 2.428-23.014-.435-39.358l-.084-.023.143.419c-.231-.32-.942-.394-1.602-1.554l-.126.176c-.262-.148-.364-.321-.396-.52-.151-.06-.302-.117-.452-.171-.944 1.749-.703 1.615-.98 6.584l-.103-.015c-.069-.463.28-3-.306-4.971-.421-.455-.269-.465-1.064-1.399a26.33 26.33 0 00-.575.68l.172-.008c.051.236.01.405-.309.448-.005.188-.01.375-.018.574-.102-.019-.164.025-.191.113.026.501-.09-5.029-.968-1.825-.433-.408-1.556-3.631-1.752-.57-.845-2.511-2.885 1.439-3.364 5.823.594-1.981-1.101-6.625-1.648.01-.001-.343-.012-.679-.149-.907-.071.092-.131.169-.23.3a4.175 4.175 0 00-.371-.024l.042-.077c-.739.794-1.393 1.632-1.438 3.968-.292.388.046.21.011.386l-.06.041c-.327 2.572-.739 2.812-.594 13.181z" data-color="2" class="icon2"></path><path d="M150.14 68.001c2.252 2.259 1.776 7.896 2.511 12.553.365-.263.644.116 1.042.279.208-.959-.045-.343 2.185-1.217.557-.427.585-1.825.814-2.519l.11.018c1.388-.021 5.967 3.564 6.424-1.939 1.27-.008.655 1.44 1.438 1.482l-.1.232c.295.253.668-.268.729.135-.673.692.655-.175.672-.313l-.04-.048-.427.173-.025-.076c.494-.856.499-.128.837.143l.124-.257-.242-.18c1-.436-.289-.668.788-1.063l-.181.658c.449.138.894-.106.721-.613 1.184-.265.637 1.426 2.31 3.399l-.088-.772.068-.031c.114.541.672.11 1.394-.455l-.049-.256c.29-.386.184-.442.477-1.583.669-.127.537-1.084.845-1.502l-.073.022-.325-.812c.461.223.461.223.557.018l-.257-.096.289-.217-.271-.125.002-.083.314-.048.207-.465-.276-.057c.968-.349 1.708-7.966 3.661-10.37l-.142-.215c.828-1.954 1.402-6.163 1.869-10.565l-.352-.191.022-.073.197-.031-.065-.579.281-.212-.256-.074.327-.543c-.168-.832-.455-.015-.7-.521-.015.27-.086.374-.29.254l.271-.479h-.001l-.184-.42-.106.188c-.129-.47.174-.618.432-.769-.079-.44.128-.673.195-1.002l.05.239.159-.12.259.233.209-.405-.221-.141c.167-.491.305-1.084.31-1.658l-.571-.081c.021-.291.062-.561-.248-.645l.15-.385.375.266.057-.077c.067-2.148-.711-1.389-.727-7.77-.34-.185-.48-.043-.732-.217l.379-.11c-.153-.433.222-.598-.038-.956.211-.138.213-.148.133-.456-.644.536-.731-.639-1.262-.767-.158.263.019.714-.378.912-.048-2.619.085-5.288-.839-9.378-.724-.377-.4-1.534-1.371-.654l-.17-.117a2.472 2.472 0 00-.519.54c-.555-.092-.546-.826-.965-1.068-.143-.644.024-1.414-.726-1.456l.131-.284c-.378-.287-.336-.77-.401-1.041-.369-.354-.901-.13-1.032-.77-.415.48-.33-.147-.52-.238-.313.225-.289.57-.349.914-.618.134-1.049 1.121-.881 1.844.501.406-.065 2.963-.645 3.349-.239-.452-.027 1.436.138 1.457-.17.28-.17.28.055.657l.237-.331c.034.559-.617.481-.297.954.02-.236.097-.384.343-.339l-.003.511h-.029l-.09-.319-.06.015.002.261c-.191.182-.224.825-.252.949.503.382-.129.98-.464 1.031.093.186-.157.345-.131.517l.293-.106-.215.585.272.125c-.066-.277.029-.384.25-.408-.14.584.217.721-.346.985.039-.14.091-.456.079-.474-.112.097-.521 1.467-.778 2.042-.045-.17-.123.225-.097.234-.045.346.046-.008-.096 1.12-.576.388-.112 1.814-.713 3.768-.075-2.675.345-5.475.06-8.018l.226-.193c-.464.005-.21-.254-.159-.443-.35-.016-.018-.739-.334-.896l-.41.195c.294-.421.097-1.121-.021-1.5-.107.734-.523.426-.785.246l-.13.288c-.393-.266-.724-.057-.741.495-.514-.032-.76.308-1.231.373-.504.436-.524 1.331-.745 1.861l-.06-.018-.063-.312c-.652 0-.403-.822-.878-.873-.517 1.732-.405 3.262-1.681 10.164l-.134-.439-.13.217c-1.074-1.624-.906 2.046-2.579 1.38.299-.163.357-.172.499-.215-1.624-1.422-.941-.09-2.292 2.585-.187.307-.939-.012-1.135 1.349-.347.454-.742 1.025-1.275 1.203-.073-1.087-.592-.494-.294.023l-.505.034-.056.887c-.376.27-.3.464-.203.764-.114.126-.121.464.029.647-.285.207-.327 9.439-.982 16.649.681.397.551 1.33.631 2.027zm27.307-22.166l.167.181c.116-.402.192-.643.279-.917.216.342.306.24.477.056l-.189.724c-.244.059-.433.442-.788.307l.054-.351zm-10.834-11.396c.387.125.256.811-.05.578-.031-.218.338-.31.05-.578zm-14.55 12.92l-.332.276a73.448 73.448 0 01-.125-.14l-.002.076c-.885.258-.463-.654.459-.212z" data-color="2" class="icon2"></path><path d="M106.993 134.387c5.079-11.129 1.539 14.657 11.448-16.737.237-1.461.486-4.222.466-8.07l-.426.256c-.209-.102-.891-.895.427-.285-.549-1.343.145-2.904-1.642-7.104-.697-.26.931-3.45-2.947-3.904.17-.002.061-.01.39.039l-.079.045-.311-.084c-.249.219.342.515-.586 1.53-.469-.221-1.236-.065-.784 1.636-.068.05-.05.497-.253.929-.069-.037-.077-.066-.4-.242l-.385.214c-.654-.083.544-1.928-1.651-1.608.602-1.367-1.248 1.028-5.004 1.446-.955-.834-.091-4.853-3.797-3.872l.241.066c-.101-.277.275-.484-1.921-.968-.714 1.183-2.45 1.255-3.582 3.656.066-.045.062-.027.341-.227.139.256-.05.145-.785.507.957-.118-.44.45-.284 1.746h-.001v.001c-.013.071.073.097.026.433l.336.353c-.101.052-.171-.1-.649.101l.389.041c.008.13-.105.227.293.829l-.506.008c1.484.34-.792 1.38.704 2.755l-.816-.036c1.127.2-.89 1.276.24 1.018-.454 1.135.586.411-.244 2.265l-.03.012.03-.012c.375 1.026.112.072-.042 2.614.154.14-1.632 2.139 2.489 9.39h.001c-.758 1.222 1.932 6.679 5.198 4.296.322.119.689.887.501 1.862-.35.48.334.935.186 1.532.261.221.149-.003.048.828l.421-.036c-.327 1.016.836 1.771 1.493 3.301l1.073-.22c-.159-.078-.058-.052-.403-.12.147-.033.118-.071.787-.184zm10.605-30.989c-.017.013.152.002.018.056.009-.013-.093-.003-.018-.056zm-4.813-.21l.02-.014.132.037-.152-.023zm.079-.256l.101.06c-.042-.017-.057.076-.254.008l.153-.068zm-3.407-1.754c-.006.007.06-.007.021.026l-.059-.014.038-.012zm-.344 29.914c.009 0 .016.006.024.009l-.109-.009h.085zm-13.576-21.349c-.013-.032-.214-.055-.001-.102.006.028.189.046.001.102zm-.239 4.047l-.1-.055.131.042a.288.288 0 00-.031.013zm.37-3.211l.004-.011.02.006-.024.005zm.383-8.167l.076-.042.162.104-.238-.062zm.268.581c-.018.004-.059-.012-.089-.02l.1-.04.075.018c-.028.015-.051.035-.086.042zm2.82 23.64c-.009-.001-.014-.008-.02-.012a.298.298 0 01.024-.014l.033.019c-.012.003-.026.008-.037.007zm4.516 3.594l-.235-.075c.013-.016.297-.115.235.075zm.861 1.628a.254.254 0 01.028-.029c.003.01.04-.019.042.038a.787.787 0 00-.07-.009z" data-color="1" class="icon1"></path><path d="M136.266 148.555c-.064-.295-.02-.306-.293-1.669.3-.134.345-6.865-2.23-5.087-.226-.341-.22-.984-.09-2.048.193-.405-.043-.852.039-1.666-.14-.338-.048-.023.048-.895l-.214.001c.252-.992-.263-1.942-.462-3.685l-.556.141c.061.08.021.063.191.165-1.1.109-.088.862-2.057 3.266-.784-6.405-2.395.274-5.533 13.851-.12 1.031.016-.55-.484 3.7-.376-.249-.741-.319-.648.687-.731-.093-.798-1.891-1.869-1.34-.309-.649.16-1.325-.735-3.036-.432-.354.343-3.229-1.948-3.551.105-.001.036-.009.237.035l-.046.041-.191-.077c-.157.265.26.286-.287 1.389-.41-.222-.707.114-.402 1.486-.031.042-.014.394-.112.844-.044-.034-.047-.058-.252-.22l-.223.194c-.431.07.409-1.528-1.066-1.463.301-1.224-.866 1.01-2.956 1.31-.71-.419.207-4.003-2.46-3.523l.148.06c-.03-.229.026-.516-1.202-.882-.331.987-1.49 1.262-2.003 3.319.038-.041.038-.027.196-.206.087.195.008.136-.451.46.505-.025-.246.57-.096 1.586v.001c-.005.065.048.086.034.394l.218.321c-.053.045-.128-.087-.387.091l.237.037c.012.127-.058.189.213.754l-.305.007c.949.496-.437 1.021.522 2.502l.023.002-.494-.034c.721.155-.499 1.107.189.926-.21.947.366.424-.049 2.059.28.973.064.065.088 2.375.116.397-.946 1.603 1.91 8.536-.067-.041-.413 2.395 1.643 4.056.261.81-.676 1.224.904 2.547l-.087-.217c.179.203.633.199 1.256.957l.125-.065c.052.026.096.051.133.076l-.024.393.253-.032c-.012 1.122.197.737 3.35.405-.053.17.354 1.128.763.132.294.188 1.032 1.983 1.475.516.652 1.362 2.699-.434 3.453-2.259-.573.838-.031 3.609 1.437.229-.029.161-.051.32.048.447l.228-.108c.105.024.214.046.321.064l-.044.03c.4-.106.121.022.757-.358.12-.006.03.03.189-.156.075-.073.007-.007.169-.169.735.521 1.482-1.556 1.563-3.116-.211.811.76 3.373.972-.101.015.159.034.314.124.411.038-.046.071-.085.124-.152.072-.001.147-.004.22-.01a.743.743 0 01-.022.038c.36-.359.762-.799.69-1.915.157-.196-.036-.094-.022-.178a.678.678 0 00.034-.023c.068-.244.075-.199.091-.938.256.278-.706 2.726 1.377 2.752l-.115-.092c.008.237-.155.552.878 1.213.368-1.043 1.45-1.352 2.11-3.616-.038.043-.037.028-.19.214-.045-.197-.011-.169.437-.475-.366-.14.28-.72.293-1.854v-.001c.013-.077-.028-.107.025-.469l-.137-.41c.045-.043.117.118.334-.051l-.191-.078c.007-.156.074-.203-.075-.918l.254.037c-.739-.823.524-1.135-.095-3.021l-.018-.006c.158.045.003.001.405.112-.597-.269.565-1.173-.032-1.117.294-1.048-.243-.584.318-2.416-.102-1.209-.042-.084.247-2.809.025-1.28.782.236-.14-8.657zm-2.667-9.845l.111.102c-.016.026-.164.078-.111-.102zm-25.028 12.179l.044-.038.102.094-.146-.056zm.187.529c-.011.004-.036-.011-.055-.018l.059-.036.046.017c-.016.012-.029.03-.05.037zm-.179 6.133c.016-.021-.14-.033-.005-.092-.018.018.125.024.005.092zm.032 3.677l-.063-.051.081.039a.094.094 0 01-.018.012zm.084-2.917l.002-.01.013.005-.015.005zm2.793 14.593c-.005-.001-.009-.007-.013-.011l.014-.013.02.017c-.007.003-.015.008-.021.007zm3.471 4.75c.004-.009.01-.018.015-.026.012.007.028-.004.027.034a.521.521 0 00-.042-.008zm1.662-27.85l-.036-.012a.226.226 0 01.022-.011c-.003.005.036-.006.014.023zm2.081 1.806l.011-.013.081.034-.092-.021zm.004-.144c-.016.002-.037-.017-.056-.027l.089-.062.064.055c-.032.012-.063.029-.097.034zm2.923.389c.004-.011-.057-.002-.013-.051-.011.013.091.002.013.051zm3.169 1.239l-.002.042a.59.59 0 01.002-.042zm6.144-15.802c-.005-.001-.008-.008-.011-.012l.054.019a.203.203 0 01-.043-.007zm2.351-.382c-.013-.012-.023-.003-.018-.045l.034.016-.016.029zm1.576 31.8c.017.012.015-.078.089-.008l-.054.034-.035-.026zm.088.65l-.072-.126.114.088-.042.038zm.587-26.353l-.013-.024.019-.004c-.004.004.021.009-.006.028zm.347 18.471c-.02.021.113.05-.008.109.021-.018-.102-.038.008-.109zm.004-.9l-.01-.008.013-.004-.003.012zm.449-3.423l.017-.011.045.069a3.29 3.29 0 01-.062-.058z" data-color="2" class="icon2"></path><path d="M145.134 126.185c.017.003.017.047.025.073l-.099-.05c.007.157-.051.355.779.681.288-.663 1.105-.784 1.583-2.178-.029.026-.028.016-.148.131-.048-.136-.002-.094.34-.291-.351-.012.204-.38.16-1.092v-.001c.007-.045-.028-.062 0-.274l-.132-.235c.039-.028.083.068.273-.04l-.161-.04c-.001-.088.052-.127-.103-.534l.211.014c-.627-.398.364-.689-.212-1.762l-.015-.003.34.052c-.489-.15.411-.736-.076-.652.202-.643-.228-.315.156-1.421l.013-.007-.013.006c-.136-.691-.04-.048.08-1.649.208-1.032.199-3.527-.814-6.019.375-1.235-.453-2.63-2.232-4.095.148-.259-.089-.535-.041-.974-.12-.174-.05-.01 0-.524l-.177.007c.319-.932-4.764-1.1-4.619 1.516-.023-.181-.214-.362-.385-.538l-.035-.007.054.145c-.095-.115-.357-.103-.644-.527l-.055.062c-.107-.049-.147-.108-.157-.177-.062-.02-.124-.038-.185-.056-.348.321-.34.716-.376 2.164l-.044-.006c-.037-.148.063-1.004-.162-1.624-.161-.15-.103-.146-.422-.47a8.623 8.623 0 00-.233.218l.069-.001c.019.078.002.133-.124.142l-.008.186c-.04-.008-.064.006-.075.034.016.026-.06-1.629-.387-.594-.167-.12-.649-1.172-.721-.176-.535-.836-1.265.884-1.383 1.889.193-.544-.322-2.383-.678.01-.001-.11-.005-.217-.061-.289l-.095.098a1.937 1.937 0 00-.153-.006.369.369 0 00.017-.025c-.271.227-.575.508-.591 1.284-.12.126.019.067.005.124l-.025.014c-.505 2.974-.336 7.295 1.349 10.472a.315.315 0 00-.018.017c.039.046.137.02.142.093.064.024.127.047.21.073l.064-.118.027.005.046.078.029.014c.414-3.139.874 2.425 1.718.712.31.095 1.258 2.25 1.194.414a.64.64 0 01.105.09c.177.379-.126 1.399.389 2.691.277.271-.428 2.214 1.136 2.572-.072-.005-.026.004-.162-.039l.034-.026.128.064c.124-.174-.163-.213.281-.945.27.178.496-.037.366-1.004.024-.027.033-.272.128-.577.028.026.029.043.161.167l.166-.121c.303-.023-.374 1.033.651 1.075-.281.829.66-.649 2.123-.732.495.216-.441 2.854 1.469 2.512zm2.764-6.764c-.012.013.095.031-.002.064.013-.011-.085-.024.002-.064zm.196-2.547l.04.039a1.49 1.49 0 00-.054-.031l.014-.008zm-.231 2.014l-.002.007-.008-.004.01-.003zm-.355 5.143l-.033.023-.065-.071.098.048zm-.098-.377c.008-.002.024.01.037.016l-.043.022a2.165 2.165 0 00-.031-.014c.012-.009.022-.02.037-.024zm-.613-15.029c.004.001.006.005.008.008l-.01.008-.013-.013.015-.003zm-1.799-2.433l.096.056c-.008.013-.129.057-.096-.056zm-6.462 16.434c.008-.008-.063-.006-.006-.036-.004.007.038.005.006.036zm2.004.308l-.009.008-.054-.028.063.02zm-.039.158l-.041-.042c.016.012.03-.046.106.004l-.065.038zm1.38 1.231c.002-.004-.026.001-.008-.017l.024.011-.016.006zm.859-18.875c-.004-.001-.007-.004-.01-.007l.045.01-.035-.003zm1.925-.297c-.008-.005-.02.001-.017-.025l.029.008a.088.088 0 01-.012.017z" data-color="2" class="icon2"></path><path d="M142.843 85.442c-.502-.636-1.155-1.601-2.048-2.075l.002-.01c-.023-.007-.05.022-.067-.002a2.137 2.137 0 00-.086.019l.004.054-.01.004-.032-.017-.013.001c.535 1.168-.813-.65-.725.117-.125.033-.899-.506-.487.109a.217.217 0 01-.054-.009c-.14-.093-.254-.504-.703-.84-.15-.032-.324-.846-.927-.642.025-.013.008-.007.062-.021l-.006.016-.056.005c-.004.087.099.037.108.383-.13-.003-.156.118.092.421-.002.014.047.099.08.225-.015-.003-.019-.009-.089-.023l-.03.076c-.102.048-.126-.439-.446-.232-.105-.352-.093.42-.492.623-.02.005-.101-.043-.218-.077-.158-.067-.131-.355-.607-.591.001-.005.003-.011.002-.015-.067-.053-.02.002-.065-.202l-.066.024c.175-.479-1.783.13-1.551 1.129-.031-.067-.125-.114-.211-.161l-.014.001.038.049c-.05-.033-.149.002-.307-.126l-.013.03c-.046-.006-.068-.024-.081-.049h-.076c-.092.167-.04.314.124.876l-.017.003c-.032-.053-.099-.393-.261-.605-.079-.039-.057-.044-.216-.131l-.061.111.026-.008c.017.028.017.051-.029.069l.02.073c-.016.002-.023.01-.024.022.01.009-.222-.618-.218-.183-.077-.026-.388-.374-.293.018-.305-.257-.367.492-.288.889.002-.303-.431-.758-.254.084-.014-.042-.029-.083-.059-.104l-.024.049a.626.626 0 00-.058.016l.003-.012c-.075.121-.153.265-.065.563-.03.063.015.024.017.047l-.008.008c.177 1.206.767 2.838 1.794 3.865l-.005.009c.02.013.054-.009.065.019.027.002.054.003.088.003a.953.953 0 00.009-.053l.011-.001a.615.615 0 01.027.025l.013.002c-.231-1.26.63.832.734.071.128-.001.749.716.5.018a.259.259 0 01.05.022c.113.125.123.551.477.988.139.07.106.898.744.854-.028.007-.009.005-.065.004a.121.121 0 01.01-.014l.056.01c.025-.083-.087-.06-.01-.396.125.036.181-.075.014-.429.005-.013-.021-.108-.023-.237.014.007.016.013.081.045l.048-.066c.112-.046-.018.437.377.336-.001.353.258-.416.709-.532.216.068.189 1.101.879.816l-.043-.008c.022.059.023.142.377.17.026-.287.32-.434.328-1.024-.008.014-.009.01-.039.068-.034-.046-.013-.036.092-.152-.176.009.063.006-.042-.182.159.078.088-.146.661.127.007.121.141.162.221.325.078.034.019-.007.112.179l.057-.04c-.05.51 1.689-.58 1.218-1.49.046.057.149.079.243.103l.013-.005-.049-.038c.056.02.143-.039.327.045l.005-.033c.046-.006.072.006.09.028l.074-.02c.047-.185-.038-.314-.336-.82l.016-.007c.044.043.192.356.4.522.086.018.066.029.241.072.011-.039.021-.08.031-.123l-.023.015c-.023-.022-.029-.045.011-.075l-.037-.066c.015-.006.02-.015.018-.027-.012-.006.367.545.256.122.082.006.466.265.278-.091.358.172.232-.571.059-.938.073.297.602.626.224-.146.024.037.048.073.082.086l.011-.053a.539.539 0 00.052-.03v.012c.042-.136.083-.295-.076-.564.013-.069-.021-.019-.028-.042a.047.047 0 00.005-.01c-.159-.417-.251-.574-.635-1.228zm-7.661-2.374l-.005-.001.018-.002a.028.028 0 01-.013.003zm.529 7.1c.002-.004-.025.005-.007-.013 0 .003.016-.003.007.013zm.159-7.441c-.004-.001-.007.003-.009-.008h.012l-.003.008zm.633 7.322a.008.008 0 00-.002.004l-.024-.004h.026zm.005.066l-.021-.011c.008.003.006-.021.04-.011l-.019.022zm.671.31c0-.002-.009.004-.005-.006l.01.001-.005.005zm.133-7.319l.004-.006c0 .002.008-.006.006.004l-.01.002zm.714.153l.014-.027.023.006c-.009-.001-.001.022-.037.021zm.034.036l.001-.005.024-.002-.025.007zm.744-.305c0-.003-.014.006-.01-.011-.001.004.023-.011.01.011zm.446 6.671l-.024-.014c.011.001.021.003.032.003l-.008.011zm.846.307c0-.006.031-.046.044-.001l-.044.001zm.377.295v-.009c.004 0 .006-.004.011.005l-.011.004zm.567-.509c.003 0 .002-.005.017-.006l-.017.006z" data-color="3" class="icon3"></path><path d="M100.713 37.144c.231.477.179.479 1.237 1.077-.024-.033-.014-.031-.118-.169.139-.068.081.013.263.39-.024-.46.268.22.976.135h.001c.04.006.055-.037.245-.015l.209-.169c.026.05-.061.087.038.324l.034-.195c.077-.005.123.052.476-.15l-.01.253c.277-.753.682.405 1.574-.363l-.044.408c.133-.571.685.441.581-.124.605.218.252-.291 1.271.113l.006.015-.006-.015c.592-.192.043-.056 1.473.01.923.208 3.25.017 5.368-1.283 1.327.675 2.727-1.614 3.639-2.875.254.171.521-.162.87-.1.138-.136.004-.071.468-.028l-.008-.211c.787.322 1.152-5.29-1.391-5.432.144-.051.032.029.483-.529l-.129.072c.107-.121.063-.388.465-.796l-.056-.062c.043-.13.095-.181.157-.196a9.94 9.94 0 00.048-.223c-.262-.375-.63-.381-1.935-.337l.005-.053c.13-.049.939.013 1.448-.278.13-.19.113-.117.416-.527a9.867 9.867 0 00-.196-.267l.001.082c-.069.027-.118.009-.128-.141h-.166c.006-.048-.006-.076-.031-.087.017.015 1.469-.168.527-.492.074-.178 1.065-.832.151-.869.751-.602-.697-1.448-1.698-1.553.739.238 1.866-.651-.014-.809.098-.006.194-.017.258-.088a5.876 5.876 0 00-.088-.108c.003-.06.005-.122.004-.182l.023.019c-.171-.264-.43-.663-1.152-.639-.114-.137-.06.026-.111.012l-.012-.029c-2.699-.496-6.791.11-9.339 2.152a.474.474 0 01-.015-.021c-.04.048-.016.165-.082.175a6.189 6.189 0 00-.064.254l.105.07-.004.032-.07.059-.012.036c2.987.434-2.386 1.103-.622 2.086-.022.305-2.027 1.632-.36 1.446a.769.769 0 01-.08.13c-.312.221-1.349-.054-2.4.604-.327.316-2.099-.276-2.288 1.489.004-.086-.004-.03.033-.195l.023.039-.056.156c.13.129.259-.185.846.286-.15.261-.029.613.9.385.024.032.277.025.517.123-.023.035-.039.038-.148.201.049.084.015.025.109.192-.032.333-1.035-.297-.955.832-.761-.309.654.904.67 2.496-.424.515-2.597-.1-2.294 1.915l.044-.121c-.17.019-.323-.005-.602.965.106.142.219.072.722.698zm18.684-3.242c.006-.003.012-.003.018-.004l-.007.035-.016-.014c.002-.005.003-.016.005-.017zm-.285-2.263c0-.005.004-.008.006-.012l-.008.054c0-.014 0-.028.002-.042zm-.679 2.712c.007-.008.021.012.032.02l-.049.118c-.009-.05-.044-.052.017-.138zm-2.129 2.275c-.003.004.012.011-.004.028l-.007-.012.011-.016zm-7.358 1.977l.007.016-.034.05a.76.76 0 01.027-.066zm-1.796-.169l.002.012-.006-.002.004-.01zm-.496.038c.004-.003.012.022.023.044-.013-.011-.03.114-.057.001.011-.016.021-.036.034-.045zm-2.899-10.997c.001-.002.009.015.016.028-.007-.004-.003.047-.032.009.005-.013.01-.028.016-.037zm-.257 2.368l-.018.076-.007-.01.025-.066zm-.122-.013c-.011.021.041.031-.003.127l-.034-.076a3.41 3.41 0 00.037-.051zm-1.119 1.78l-.006-.019c.004.003-.002-.03.015-.011l-.009.03zm.615 6.5c-.006.018.041.006.007.087l-.02-.05.013-.037zm-.273.06l-.042.119-.021-.038.063-.081z" data-color="2" class="icon2"></path><path d="M83.889 102.376c.208-1.298.117-3.24-.75-4.56l.01-.007c-.02-.021-.072-.011-.075-.043a2.19 2.19 0 00-.111-.035l-.033.051-.014-.002-.024-.035-.015-.006c-.208 1.374-.478-1.102-.907-.34-.143-.027-.672-1.017-.631-.201a.315.315 0 01-.055-.041c-.091-.162.061-.642-.207-1.189-.137-.148.192-1.006-.602-1.149.038.003.013-.001.085.02l-.018.011-.068-.03c-.062.067.08.117-.148.411-.278-.193-.147.383-.26.687-.015-.012-.016-.02-.085-.076l-.088.051c-.151-.011.171-.485-.344-.483.139-.367-.535.354-1.121.288-.228-.191.142-1.251-.79-1.159l.052.024c-.004-.077.017-.158-.412-.312-.161.297-.573.315-.834.932.015-.011.014-.006.078-.055.025.065-.002.04-.179.123.198 0-.106.143-.084.477-.004.02.015.028 0 .121l.07.105c-.022.012-.039-.031-.144.013l.085.02c0 .038-.026.058.055.236l-.112-.009c.325.167-.186.303.113.778l.008.002-.179-.028c.253.074-.214.325.041.288-.11.291.121.126-.081.622.071.299.023.022-.041.723-.112.45-.094 1.576.434 2.659-.181.629.275 1.168 1.181 1.836-.081.121.054.248.022.429.059.073.029.004.001.23h.093c-.38.393 2.131.602 2.437-.593.012.08.113.163.204.243l.018.004-.029-.065c.05.054.176.042.341.242l.029-.026c.056.023.077.05.083.08.033.01.065.019.098.027.177-.13.181-.301.197-.945l.023.003c.019.065-.031.453.087.716.082.067.051.061.223.213l.123-.092-.036-.001c-.01-.034-.001-.058.065-.061l.004-.082c.021.004.034-.001.039-.014-.007 0 .035.723.205.267.08.045.343.533.381.089.261.379.662-.339.729-.808-.125.343.242.931.358.007 0 .048.003.095.033.128l.05-.041.081.005-.009.011c.129-.085.304-.206.311-.555.063-.054-.01-.03-.003-.055l.013-.006c.009-.026.025-.05.029-.068zm-7.694-4.881c.005-.006-.05-.016.001-.028-.006.005.045.012-.001.028zm-.102 1.116l-.021-.018.028.015-.007.003zm.121-.881l.001-.003.004.002-.005.001zm.184-2.255l.017-.01a.998.998 0 00.034.032l-.051-.022zm.052.167c-.004.001-.013-.005-.019-.007l.023-.009.016.007c-.007.003-.012.008-.02.009zm.334 6.616c-.002 0-.003-.002-.004-.004l.006-.003.007.006-.009.001zm.951 1.098l-.051-.026c.004-.005.068-.024.051.026zm.17.471a.043.043 0 01.006-.007c.001.003.01-.003.009.011l-.015-.004zm1.004-.109c.004.002.006-.003.024.005l-.024-.005zm.464-8.274l-.013-.005a.069.069 0 00.008-.003c-.001.002.014 0 .005.008zm.705.624l.005-.003.029.013a.337.337 0 01-.034-.01zm.005-.043c-.006 0-.013-.007-.02-.01l.034-.015.022.019c-.011.002-.023.006-.036.006zm1.056.226c.002-.003-.021-.003-.003-.016-.004.004.034.004.003.016z" data-color="2" class="icon2"></path><path d="M149.695 176.769c-.108-.651-.089-1.645-.498-2.393l.006-.006c-.013-.018-.048-.008-.049-.036a5.177 5.177 0 00-.072-.029l-.023.045-.009-.002-.015-.03a.047.047 0 00-.01-.005c-.165 1.19-.288-.919-.592-.278-.113-.043-.416-.864-.413-.162a.24.24 0 01-.036-.035c-.059-.149.058-.525-.111-1.034-.098-.096.18-.83-.373-.99.025.002.009-.002.056.015l-.012.01-.044-.025c-.046.07.057.074-.107.362-.099-.069-.171.021-.137.385-.008.011-.014.1-.05.221-.01-.01-.01-.016-.055-.065l-.059.046c-.099-.028.117-.415-.217-.414.104-.318-.325.294-.747.276-.167-.114.176-1.036-.497-.995l.034.02c-.001-.057.026-.134-.265-.263-.103.249-.395.303-.572.832.01-.01.01-.006.053-.05.015.05.001.037-.121.111.118.011-.075.153-.066.419-.003.017.009.024-.002.105l.044.091c-.014.01-.03-.026-.096.015l.056.016c0 .034-.019.048.031.205a21.83 21.83 0 01-.073-.006c.217.162-.135.261.058.677l.005.001-.118-.021c.171.058-.151.278.021.25-.076.246.076.119-.067.545.041.268.013.019-.043.633-.081.396-.104 1.343.229 2.313-.146.438.123 1.007.741 1.577-.053.099.024.199.005.374.041.07.016.004-.005.201l.062-.002c-.304.366 1.569.399 1.624-.571.006.07.071.14.129.207l.012.003-.018-.056c.032.044.128.045.22.204l.02-.024c.037.019.05.042.053.068l.064.022c.126-.126.124-.273.151-.83l.015.002c.012.058-.032.38.042.624.055.058.035.058.143.181l.083-.083h-.024c-.006-.03.001-.051.044-.054l.005-.072c.014.003.022-.002.026-.013-.006-.014.006.622.129.229.059.05.215.449.25.069.186.319.45-.347.5-.722-.091.267.141.812.237-.002-.001.042 0 .083.019.111l.034-.037a.47.47 0 00.053.003.088.088 0 00-.006.01c.101-.091.205-.196.218-.492.043-.048-.006-.026 0-.048l.009-.005c.09-.452.129-.876.121-1.628zm-5.08-2.521c.005-.005-.033-.012.001-.025-.005.004.029.009-.001.025zm-.092.977l-.014-.015.018.012a.014.014 0 01-.004.003zm.099-.773l.001-.003.003.002-.004.001zm.183-1.982l.022.028-.034-.019.012-.009zm.019.154c-.003.001-.008-.004-.013-.006l.015-.008.011.005c-.004.003-.008.007-.013.009zm.076 5.77l-.003-.003.004-.003.004.005-.005.001zm.604.938l-.033-.022c.004-.005.046-.02.033.022zm.102.408l.004-.007c.003.002.007 0 .006.01a.126.126 0 00-.01-.003zm.666-.117c.002.002.005-.003.016.004a.075.075 0 00-.016-.004zm.488-7.236l-.008-.004a.014.014 0 01.006-.002c-.002.001.008-.001.002.006zm.452.53l.003-.003.019.011-.022-.008zm.005-.038c-.004 0-.008-.005-.013-.008l.023-.014.014.016c-.008.002-.016.006-.024.006zm.693.175c.001-.003-.014-.002-.002-.014-.003.003.022.003.002.014z" data-color="1" class="icon1"></path><path d="M92.575 149.088c-.109-.747.069-3.638-1.501-5.404l-.225.075c-.182.224.103.186-.721.769l-.31.77c-.402-1.338-1.56-1.341-3.014.506l-.132-.526h-.19l-.22.314.05.009-.248 1.455-.013-.003-.033.253-.063-.004c-.269-.312.515-2.574-.801-3.433l-.011.188-.135.18-.57-.028.021.42-.159.093-.414 1.246c-.424.268-.769.602-.988 1.073-.113-.513-.008-.074-.012-1.184l-.114.156c-.018-1.106.164-2.169-.069-3.185l-.331-.269-.074-.465c-.277-.016-.16.243-.256.392l-.334-.044c-.345.368.39.934-.951 1.467a19.404 19.404 0 01-.054-.211c-.04.209-.19.055-.379.868l-.137.122c-.138-.051-.116-.017-.368-.564l-.06.02-.108.193-.443-.19c-.633.268.518 1.521-1.184 1.991l-.172.401a9.23 9.23 0 00-.142.084l-.286.635h-.821c.099.096.284.09.165.256l-.15-.05-.181.259-.047-.006.049.417-.205.057.046.343-.29-.08.073.193c-.044.115-.183.004-.335.53l-.242-.084c-.293.196-.61.159-.948.072l-.088.293c-.227.182-.286.295-.371.713-.534.151-.345-.19-1.232-.159-.099.573.09 1.103-.67 2.706l-.479.638c-.295-.12.264-.935-.42-1.65l-.228.925-.198.093c-.056 2.593-.42 6.786.071 11.119l-.17-.008.069.397.115.046v.276l-.1.118.183.067a9.101 9.101 0 00-.116.131l.081.185c-.098.216-.114.414.043.545-.118.838-.11.583-.027 2.584l.069-.136.036.008.033.398-.062.011a18.47 18.47 0 01-.109-.195c-.108.208-.073 2.204.035 2.332.118-.132-.039-.368.218-.498.063.676.014 1.318-.035 1.964.266-.263-.131-.195.43-1.111.1.348.049.267-.16 1.374l.085.027.494-1.229c.416.497.032.006.686 1.474l.326.085.176-.124c.304.033.211.321.31.473l.438.097.105-.332c.113-.118.113.042.53-.379l.13-.031.6-1.514.18.01.091.696c.065.09.176-.036.448.339l.25-.112c.147.149.121.557-.036.73l-.174-.052c.102.194.357.803.812-.003l.318.079.048.2.183.074.066.166.075-.073.2.264v2.084a.485.485 0 00.04.005l.142-.452c.205.293.081.03.134.81.181.177.086.372.023.538.113.609.036 1.23.342 1.778.273.118.131.287.759 1.277l.194-.138c2.243.246 1.088-2.935 3.217-7.863l.198-.065c.308.29.29.651.274.986l.234.105c.018.598-.075.829.884 1.648l.202-.388.195-.061.272-.606.502-.086c-.149.352.218.409.274.626.264.163.53.087.768.037l.36.257c.613-1.342.39-2.886 1.759-5.325l.744.186.308.719.126.052c.706-.697 1.815-1.977 2.827-20.232zm-21.349 20.979a8.542 8.542 0 00-.146-.05v-.893c.154.149.221.065.146.943zm.39.886l-.144-.094.047-.269c.125.092.227.006.097.363zm5.065 1.497c-.127-.186-.08-.553.081-.731l.086.417-.167.314z" data-color="3" class="icon3"></path><path d="M20.911 43.756c2.094 8.835.571 22.583 8.668 31.092l.284-.196c.165-.39-.221-.217.694-1.372l.121-1.209c1.101 1.718 2.72 1.277 4.003-1.918l.398.689.265-.076.179-.53-.073.008-.244-2.151h.019l-.057-.37.09-.019c.504.333.319 3.826 2.511 4.52l-.061-.27.116-.307.807-.188-.2-.583.184-.195.072-1.922c.484-.547.83-1.157.944-1.907.366.679.041.101.497 1.665l.096-.265c.474 1.552.65 3.123 1.387 4.462l.572.247.292.626c.392-.089.125-.407.199-.655l.484-.072c.333-.653-.925-1.157.732-2.448l.161.275c-.029-.309.243-.156.177-1.376l.142-.226c.213.017.17-.021.743.648l.075-.052.073-.316.695.091c.777-.629-1.344-1.93.846-3.28l.077-.634.165-.175.141-1.01 1.147-.328c-.177-.096-.433-.014-.334-.295l.229.011.147-.438.068-.011-.238-.569.263-.163-.204-.465.437-.003-.179-.242c.015-.18.254-.079.252-.881l.372.021c.33-.393.788-.469 1.294-.48l.004-.449c.243-.346.28-.53.229-1.153.685-.427.559.13 1.784-.269.015-.627-.605-.908-.162-4.083l.41-1.091c.461.052.009 1.42 1.256 2.159l-.057-1.395.239-.21c-1.12-3.937-1.191-6.573-4.609-15.647l.241-.057-.258-.532a8.835 8.835 0 01-.179-.02l-.112-.39.091-.205-.282-.021.11-.231-.189-.228c.049-.344-.008-.63-.282-.752-.217-1.306.174-.047-1.01-3.654l-.041.22a.98.98 0 00-.054.004l-.207-.547.082-.04.231.231c.066-.337-.792-3.137-.995-3.274-.111.233.204.503-.103.789-.363-.927-.554-1.853-.748-2.783-.265.481.262.218-.149 1.739-.281-.451-.177-.356-.334-2.001l-.129-.004-.192 1.931c-.784-.536-.047.004-1.556-1.803l-.489.011-.195.245c-.437.075-.425-.368-.625-.543l-.651.039-.012.509c-.109.212-.176-.013-.587.746l-.168.096-.224 2.373-.255.057-.409-.945c-.127-.1-.233.121-.763-.299l-.304.257c-.265-.151-.394-.737-.246-1.043l.264.004c-.221-.232-.824-.991-1.132.329l-.475.016-.149-.263-.286-.031-.16-.207-.075.132-.386-.292-.845-2.938-.058.008-.015.694c-.406-.332-.125-.011-.516-1.088-.324-.177-.271-.489-.25-.749-.404-.813-.549-1.72-1.199-2.369-.429-.056-.3-.353-1.578-1.497l-.214.272c-2.813.267-.67 2.132-1.303 12.371l-.25.171c-.548-.286-.669-.802-.783-1.28l-.37-.055c-.267-.831-.229-1.199-1.902-1.971l-.124.628-.247.164-.133.963-.665.322c.065-.557-.471-.489-.636-.774-.435-.124-.774.09-1.087.255l-.607-.218c-.31 1.63.606 2.124-.296 8.21l-1.114.035-.722-.89-.196-.022c-1.257 1.555-.461 2.347-.12 5.575zm25.902-14.021l.362 1.259c-.276-.149-.336-.005-.587-1.272l.225.013zm-.891-1.032l.044.397c-.212-.079-.318.082-.282-.472.076.025.152.048.238.075zm-7.916-.162c.253.212.337.748.184 1.064l-.29-.554.106-.51z" data-color="1" class="icon1"></path><path d="M95.506 79.205c.174.331.508.58 1.899 2.482-.594.297-.62-.731-2.153-.412.371.345.746.683 1.128 1.016l.092.383c1.69.489 4.034 3.68 10.776 2.016l.002-.054.042.074c.167-.198.435.2.75-.219a11.04 11.04 0 01-.012.23 7.7 7.7 0 01.227-.086l.036-.171c.054.004.104.007.154.012l.056.183c.025-.122.043-.221.064-.346l.056.237.12-.125c.114.172.224.213.338-.069.243.331.456.265 1.5.429l.011-.075-.099-.157.278-.012-.006.108-.123.11c.303.266 1.049.381 1.423.233-.059-.196-.225.03-.253-.341.386-.032.841.065 1.198.206-.098-.352-.279.072-.608-.738.164-.16.192-.065.831.383l.035-.138c-.215-.271-.406-.64-.718-.815.285-.606-.009-.1 1.041-1.078-.009-.663.136-1.163.449-2.143-.134-.125-.227-.214-.321-.303.057-.121-.211-.691-.308-1.26-.416-.465-.832-.929-1.251-1.391l-.025-.343c.404-.011.293.158.699-.931l-.121-.52.07-.223.535.319-.047.417c.305-.122.255-.042.212-1.104.645-.214.252.077 4.931-.65l-.009-.01.01.009c.079-.082.127-.147.133-.144 0 0-.018.112-.025.246.843.765.926.695 3.269 1.49.002-.191-.203-.538-.2-.54.188.115 4.643 3.592 1.232-1.031-.039.041-.205-.141-.23-.109.084.021.148.039.194.054-.193-.261.097.053-.437-.675.394-.917 1.332-.199 2.753.592.654 1.169.69.192 2.817 2.869-.079-.202-.195-.415-.183-.617.178.091.438.379.441.377-.445-.919-3.358-5.804.782-1.242.082.21-.154.413.615.801a1.373 1.373 0 00-.328-.568c4.086 3.819-1.305-6.176 2.594-2.828-4.129-8.158-12.774-26.077-27.839-21.38-.892-.158-2.314-.589-3.69.425-.896.36-1.623.976-3.232 2.666a.79.79 0 01.003.019l-.216.31-.01-.023-.065.215c.11.059.246-.067.261.296l-.11.172c.112.032.22.065.339.106.04.185-1.634.916-.944 1.782-.031.211.139.131.191.191.005.158.007.286.009.438-.101.114-.157-.032-.403.286.043.064.075.115.107.167l.021-.043c.226.028.447.066.662.114l-.02.047.1-.074.037.107c-.382.144-1.334-.055-2.098.801a.313.313 0 00-.005.03l.112-.013.042.134c-.007.079-.122.058-.182.432l.193-.038v.133c.183.116.345.236.502.365-.031.434.035.761.181.988-.239.08-.464.109-.623-.043l.034.095c-.646-.042-1.188-.109-1.833.012-.257.349-.434.34-.617.35-.035.122-.116.093.112.277l-.184.308c.182.271.758.125.295 1.086l-.181.025c.055.095.05.313.241.679-.165.11-.027.203-.62.376l.023.124c-1.137 1.231.741.034-.071 2.509.033.087.081.212.133.342-.023.398-.066.124.216.888-.142.353-.278.71-.408 1.067.173-.203.191-.209.223-.016l-.141.205.127.133-.004.279c.101.046.208.094.331.146l-.068.364c.108.033.209.062.321.093-.027.109-.092.025-.168.381l.133.023c.082.136-.071.225.332.827l-.171.302c.082.541-.064 1.062-.216 1.576.086.104.16.191.244.289.056.46.306.815.635 1.123l-.004.438a12.99 12.99 0 01-.149.181l.04.19c-.303.285-.408.646-.308 1.06.329.39 1.005.721 2.044 1.85zm16.701 4.78c-.006-.023.284-.012.12.343l-.15-.086.03-.257zm10.268-9.958c-.001.048-.448-.3-.351-.307.25.188.352.286.351.307zm-10.809 10.575l.112.021c-.009.037.02.068-.056.199a37.46 37.46 0 01-.525-.099c.072-.29.356-.352.469-.121z" data-color="3" class="icon3"></path><path d="M70.682 138.192c.003.056.016.089.075.109.212.248.135.251.535.758.094-.107.192-.221.297-.348a2.827 2.827 0 01-.088.001c-.025-.125-.003-.214.16-.231l.012-.302c.052.012.084-.01.098-.056-.029-.088.068 2.598.484.981.216.215.771 1.946.89.333.569 1.405 1.58-1.245 1.744-3.008-.312.999.521 3.532.84.026-.001.181.002.358.071.481l.119-.154c.062.009.126.016.189.02l-.022.04c.389-.415.718-.846.753-2.066.151-.199-.022-.112-.004-.204a.833.833 0 01.031-.021c.653-4.942.583-11.653-1.499-17.23a.323.323 0 01.023-.026c-.047-.077-.169-.041-.175-.161a5.004 5.004 0 00-.259-.133l-.081.188-.033-.009-.056-.131-.036-.024c-.576 5.009-1.006-3.879-2.115-1.274-.424-.209-1.48-3.74-1.477-.752-.34-.228-.268-1.821-1.18-.284-.056-.108-.025-.046-.135-.263l-.067.087c-.131-.09-.179-.185-.192-.292a6.705 6.705 0 00-.227-.11c-.455.78-.273.078-.624 3.216a.508.508 0 00-.045-.123c.021-.119.156-1.458-.068-2.316-.205-.258-.128-.256-.515-.785-.097.102-.198.211-.306.332l.088.004c.021.126-.003.214-.166.222-.006.099-.012.197-.02.301-.052-.014-.084.006-.099.051.027.094.002-2.598-.458-1.005-.206-.217-.719-1.986-.881-.379-.144-.128-.154-.891-.559-.38l.004-.048-.042-.009a5.745 5.745 0 00-.089.092l-.005-.25.061.003.061.109c.154-.355.223-.903.143-1.287-.111.056.015.202-.194.234a4.19 4.19 0 01.125-1.084c-.208.101.059.22-.42.561-.087-.147-.038-.165.222-.756l-.077-.029c-.135.212-.397.399-.464.662-.376-.278-.048.001-.598-.92-.437.052-.53-.131-1.112-.288l-.091-.081-.173.295a.489.489 0 00-.037-.008c-.076.019-.051.06-.437.179l-.092.098a7.295 7.295 0 00-.145.031c-.266.383-.53.767-.793 1.152l-.193.028c-.046-.315.156-.286-.383-.523l-.135-.092-.293.118-.125-.059.184-.488.234.035c-.073-.258-.023-.251-.7-.138l-.207.296-.334-.014-.032-.13-.043.022c-.631-.312-.472-.531-.362-1.771l-.038.003-.161.336c-.192-.133-.09.004-.129-.524-.126-.523.195-.303-.236-1.556-.352-.114-.106-.082-.814-.777l-.165.098c-.243.04-.777-.368-1.052.581l-.04-.01c-.757 1.485-.623 2.885-2.094 5.363l-.17.069c-.172-.256-.134-.53-.055-.795a38.354 38.354 0 01-.166-.127c.073-.374.147-.659-.414-1.269l-.19.298-.146.037-.262.442-.376.078c.083-.173.07-.297-.081-.358l-.034-.157c-.111-.046-.215.109-.766-.059-.605.771-.423 1.77-1.855 3.32a7.119 7.119 0 00-.479-.19c-.084-.054.076-.23-.255-.477-.059.021-.048.12-.317.179-1.052 1.967-2.67 6.055-1.656 9.326.179.731.468 1.34 1.474 2.869l.01-.003.173.19-.013.009.121.055c.053-.025-.106-.167.169-.24l.096.097c.019-.102.039-.2.063-.307.098-.07.467 1.439.995.821.119.024.075-.127.109-.176.089-.007.161-.012.247-.016.064.088-.028.122.158.358.037-.04.065-.07.095-.099l-.024-.018c.018-.205.041-.404.069-.599l.026.018a3.266 3.266 0 00-.041-.089l.061-.035c.083.299-.068 1.124.434 1.879l.017.004-.006-.101.075-.04.158.143.084.013-.02-.174.075-.002c.067-.167.135-.316.209-.459.244.021.428-.045.557-.18.043.214.058.417-.029.563l.054-.033c-.039.581-.059 1.072-.008 1.653.194.226.188.385.192.55.079.038.052.091.157-.105l.172.161c.101-.216.228-.669.613-.284l.013.163c.053-.051.187-.056.384-.229.07.152.125.063.206.553l.07-.023c.659.937.093-.667 1.411.021l.193-.125.118.031c.121-.072.242-.148.383-.241.188.116.392.236.597.35-.113-.152-.116-.169-.007-.201l.114.123.076-.116.157-.001c.027-.092.055-.19.085-.301l.204.055c.019-.098.037-.189.055-.291l.157.143.056.002.014-.12c.077-.073.147.046.468-.313l.168.149c.333-.094.598.054.885.168l.165-.225c.341-.087.48-.345.637-.592l.246-.004.101.131.107-.039c.122.17.197.38.594.26.2-.342.103-.159.608-1.128.506 2.006.172 5.36 1.46 7.952l-.023.025c.045.079.168.049.17.17.077.047.155.092.255.146l.086-.184.033.011.052.134.035.026c.712-5.01.902 3.951 2.082 1.383.41.22 1.383 3.808 1.458.828.284.538.568 1.765 1.324-.025.04.094.389.184.623.695l.065-.09c.133.083.184.176.199.282.077.035.153.067.23.098.419-.8.269-.033.525-3.075.021-.022.041-.046.062-.071-.073.147-.024 1.221.048 2.218zm-10.559-26.594l-.094.017-.044-.263c.074-.075.037-.178.272-.281.085.174-.074.356-.134.527zm5.291.202a3.701 3.701 0 00-.144-.022c-.026-.077-.037-.143.077-.178l.117.064a4.733 4.733 0 00-.05.136zm.198.455l.013-.101.05.002.062.046-.06.475c-.163-.061-.196-.317-.065-.422z" data-color="2" class="icon2"></path><path d="M20.399 105.922l.089-.114.02.01.012.094.019.02c1.31-3.103-.057 2.609 1.163 1.105.257.223.269 2.658.835.681.025.04.043.078.056.118.018.468-.537 1.393-.553 2.979.184.303-1.092 2.115.091 2.998-.058-.02-.022-.001-.119-.073l.036-.021.083.094c.17-.188-.094-.202.533-.964.207.253.416-.005.621-1.012.029-.032.103-.255.29-.598.015.034.009.05.077.212.076-.044.023-.013.174-.098.205.216-.6 1.037.181 1.288-.455.818.572-.501 1.959-.373.351.356-1.273 2.672.377 3.079l-.064-.074c-.032.147-.186.341.412.888.415-.627 1.18-.663 1.987-2.04-.032.023-.029.013-.162.112 0-.139.023-.108.37-.248-.24-.122.303-.423.483-1.147v-.001c.02-.047-.003-.073.088-.296l-.031-.279c.037-.022.061.09.235.01l-.118-.075c.028-.097.082-.119.089-.596l.167.056c-.376-.626.524-.643.396-1.943l-.012-.006.259.123c-.362-.258.567-.682.149-.718.359-.632-.076-.402.586-1.503.021-.06-.065-.073.052-.347.139.157.022.05.65.202l-.017.032c.078.036.205-.053.249.038.103-.006.205-.013.335-.026l.032-.186.04-.009.105.074.048.001c-.923-4.126 2.453 2.574 2.799-.066.461-.068 2.923 2.17 1.912-.153.49.133.975 1.13 1.427-.367.098.056.042.023.236.136l.049-.101c.177.005.262.054.309.131.098-.008.196-.017.292-.027.243-.762.307-.192-.308-2.804.028.03.058.055.09.072.007.096.306 1.25.808 1.762.3.098.204.118.831.352.078-.127.158-.262.242-.41l-.101.041c-.064-.087-.064-.167.118-.255l-.072-.243c.063-.014.093-.046.096-.089-.021.002.842 2.066.836.551.286.065 1.466 1.192 1.118-.145 1.02.868 1.458-1.547 1.148-3.166-.031.818 1.525 2.946.973-.364.05.143.105.281.219.346l.093-.175c.074-.021.15-.045.223-.071l-.014.041c.27-.407.608-.935.277-1.971.117-.226-.057-.078-.062-.159l.029-.03c-.577-4.084-2.855-9.734-6.635-12.877l.019-.031c-.076-.039-.206.046-.247-.047a7.671 7.671 0 00-.335.014l-.039.185-.04.008-.102-.078a.77.77 0 00-.048-.002c.764 4.163-2.35-2.664-2.796-.035-.464.05-2.834-2.277-1.913.084-.546-.376-1.244-.974-1.492.679-.079-.061-.429.071-.926-.229l-.045.102c-.177.002-.264-.045-.314-.119a8.878 8.878 0 00-.291.038c-.293.69-.156.616.375 2.646a1.008 1.008 0 00-.048.086c-.011-.094-.354-1.245-.88-1.742-.304-.087-.208-.11-.846-.321-.073.13-.148.267-.226.417l.099-.045c.067.085.071.164-.108.259l.082.24c-.062.017-.092.05-.093.092.021-.002-.922-2.031-.858-.519-.288-.053-1.512-1.138-1.113.185-.865-.738-1.138.733-1.113 1.873.019-.117-.292-.304-.372.083-.378-.795-1.365.973-1.788 1.932.406-.649.307-2.368-.553-.123.035-.118.066-.235.044-.324l-.108.087a1.23 1.23 0 00-.122-.037l.022-.024c-.333.223-.633.456-.894 1.27-.138.113-.006.076-.036.135l-.024.01c-1.342 3.108-2.609 7.534-2.286 11.562a.519.519 0 00-.02.015c.017.057.105.048.085.128.043.038.087.075.145.12zm1.746 4.208c.009-.007-.05-.018.006-.04-.004.008.031.014-.006.04zm8.773-2.205l-.004.007-.005-.006.009-.001zm-.144.581c-.016.011.069.049-.022.069.016-.009-.063-.039.022-.069zm-1.763 4.472c.007 0 .016.016.025.024l-.042.015-.02-.021c.012-.006.024-.017.037-.018zm-.042.426l-.034.019-.03-.09a4.1 4.1 0 01.064.071zm-4.659-.807l.016.016-.015.004c.002-.003-.021-.004-.001-.02zm-.638-1.742l-.01.007-.035-.041.045.034zm-.041.105c.009.001.015.02.023.031l-.065.028-.02-.053c.021-.003.042-.009.062-.006z" data-color="3" class="icon3"></path><path d="M131.835 36.358c.205 3.141-.053 7.681.894 11.845l-.018.03c.031.099.124.068.122.216.056.061.112.12.185.19.019-.06.044-.139.068-.221l.024.015c.022.04-.021.035.061.199.693-6.038.521 4.699 1.507 1.782.318.544.93 4.358 1.059 1.077.227.434.265 2.387.983.029.032.112.315.31.443.877l.051-.108a.55.55 0 01.14.353c.056.046.112.089.168.131.374-.877.134-.241.521-3.818-.014.152-.131 1.738.032 2.852.157.32.098.336.376.95.073-.126.149-.262.229-.412a4.345 4.345 0 01-.065-.003c-.015-.154.004-.261.125-.275l.017-.369c.038.017.062-.009.074-.064-.031-.152-.01 3.064.332 1.22.154.379.53 2.238.651.447.352 1.626 1.188-1.226 1.375-3.598-.252.951.278 4.368.622.069-.006.221-.008.438.04.591a9.47 9.47 0 00.092-.182.98.98 0 00.14.033l-.017.048c.356-.518.641-1.464.617-2.739a.51.51 0 00.023-.024c.605-6.132.777-13.865-.646-21.118l.017-.031c-.033-.096-.125-.057-.125-.205a3.844 3.844 0 00-.188-.174l-.065.227-.024-.013c-.023-.039.021-.034-.064-.194-.59 6.03-.599-4.603-1.534-1.651-.342-.532-.992-4.302-1.075-.985-.208-.36-.21-2.123-.867-.4l-.093-.327-.052.103a.584.584 0 01-.134-.365 5.353 5.353 0 00-.165-.145c-.379.982-.197.097-.55 3.902-.078-.226.156-1.766-.018-2.984-.15-.331-.092-.34-.361-.982-.075.12-.153.249-.236.392l.065.009c.012.155-.008.261-.129.264l-.023.367c-.038-.02-.062.003-.075.057.037.009.043-3.001-.312-1.248-.141-.372-.493-2.285-.643-.503-.317-1.655-1.211 1.118-1.432 3.476.266-.788-.192-4.425-.621-.123.009-.22.015-.437-.03-.594l-.095.174a1.022 1.022 0 00-.139-.045l.018-.046c-.37.498-.664 1.422-.661 2.684l-.024.022c-.336 2.489-.589 5.372-.59 9.315z" data-color="1" class="icon1"></path><path d="M179.99 109.419c-.196-3.282.062-7.807-.895-12.098l.018-.03c-.031-.099-.124-.068-.122-.216a3.963 3.963 0 00-.185-.19c-.019.06-.044.139-.068.221l-.024-.015c-.022-.04.021-.035-.061-.199-.693 6.038-.521-4.7-1.507-1.782-.318-.544-.93-4.358-1.059-1.077-.227-.434-.265-2.387-.983-.029-.032-.112-.315-.31-.443-.877a6.77 6.77 0 01-.051.108.55.55 0 01-.14-.353 4.796 4.796 0 00-.168-.131c-.374.877-.134.241-.521 3.818.014-.152.131-1.738-.032-2.852-.157-.32-.098-.336-.376-.95-.073.126-.149.262-.229.412l.065.003c.015.154-.004.261-.125.275l-.017.369c-.038-.017-.062.009-.074.064.031.152.01-3.064-.332-1.22-.228-.046-.111-1.744-.624-1.025-.272-.1.33-.973-1.042-1.236.092.023.033.002.202.078l-.047.017-.155-.095c-.169.117.144.318-.497.866-.253-.222-.652-.156-.615.904-.039.02-.088.295-.247.54-.032-.033-.032-.051-.183-.205l-.23.079c-.354-.102.556-1.062-.68-1.225.5-.767-1.106.52-2.83.2-.466-.564.703-2.813-1.544-2.926l.12.074c.017-.187.08-.353-.902-.867-.504.615-1.491.469-2.345 1.765.041-.019.037-.008.208-.093.042.166-.031.087-.478.205.496.074-.299.254-.363 1.042v.001c-.016.043.027.068-.039.272l.135.265c-.059.018-.081-.086-.357-.028l.202.079c-.012.086-.083.122.055.554l-.269-.066c.748.471-.589.658.038 1.804l-.428-.136c.586.268-.627.654.004.664-.368.614.256.342-.405 1.369.074.692.05.06-.34 1.613-.321.647-.843 3.129.179 6.161-1.023 1.283 1.112 3.334 2.275 4.606-.24.24.056.601-.087.975.117.182.074.02-.075.519l.228.036c-.373.73 5.622 2.485 6.145-.36.023.169-.039.028.46.643l-.049-.157c1.902 1.87.273 5.762 1.685 9.565l-.017.031c.033.096.125.057.125.205.057.056.114.11.188.174l.065-.227.024.013c.023.039-.021.034.064.194.59-6.03.599 4.603 1.534 1.651.342.532.992 4.302 1.075.985.208.36.209 2.123.867.4l.093.327.052-.103a.584.584 0 01.134.365c.055.05.11.099.165.145.379-.982.197-.097.55-3.902.078.226-.156 1.766.018 2.984.15.331.092.34.361.982.075-.12.153-.249.236-.392l-.065-.008c-.012-.155.008-.261.129-.264l.023-.367c.038.02.062-.003.075-.058-.037-.009-.043 3.001.312 1.248.141.372.493 2.285.643.503.317 1.655 1.211-1.118 1.432-3.476-.265.788.192 4.425.621.123-.009.22-.015.437.03.594l.095-.174c.045.018.093.034.139.045l-.018.046c.37-.498.664-1.422.661-2.684l.024-.022c.328-2.476.567-5.116.589-9.066zm-20.939-12.214l-.046-.048.064.044-.018.004zm.477 8.488c-.005-.002-.006-.007-.009-.01a.088.088 0 01.015-.005l.015.016c-.008-.001-.016.001-.021-.001zm.11-10.424l.003-.006.01.006h-.013zm.032-.536c.014-.011-.116-.057.012-.063-.017.008.104.046-.012.063zm1.209-4.483l.073.087-.119-.071.046-.016zm.027.412c-.01 0-.03-.016-.045-.025l.058-.011.037.022c-.017.005-.031.014-.05.014zm.58 17.884l-.116-.079c.012-.008.172-.028.116.079zm.295 1.143l-.036-.015.018-.014c.001.006.025-.005.018.029zm2.45.141c.009.006.015-.005.056.021l-.056-.021zm3.873-18.445l-.03-.017.022-.003c-.004.004.032.005.008.02zm1.513 1.688l.012-.006.066.041a2.67 2.67 0 01-.078-.035zm.028-.095c-.014-.002-.03-.02-.045-.031l.089-.021.046.052c-.029 0-.059.004-.09 0z" data-color="3" class="icon3"></path><path d="M54.214 79.205c.14.003.103.218.735.384-.076.024-.016-.016-.26.263l.069-.035c-.058.06-.04.199-.254.4l.028.033c-.025.066-.052.091-.085.098l-.029.114c.134.198.317.204 1.004.204l-.003.027c-.068.023-.488-.022-.759.119-.071.095-.062.059-.225.263l.098.14.001-.042c.036-.013.062-.003.065.074l.087.003c-.004.025.002.039.015.045-.007-.008-.768.062-.282.244-.042.09-.567.409-.092.443-.401.299.345.754.862.823-.379-.134-.983.303-.005.415-.051.002-.101.006-.136.041l.044.057-.005.093-.011-.01c.086.139.215.346.591.346.057.072.032-.012.058-.004l.006.015c.354.102.528.096 1.212.131.082.227.2.554.027 1.181-.291.18-1.257-.497-1.452.536l.042-.051c-.084-.019-.157-.06-.458.365.253.272.122.719.667 1.195-.006-.02-.002-.017-.03-.102.077-.009.039.016.064.234.066-.226.097.154.459.232.019.01.033-.008.123.035l.131-.046c.005.029-.045.032-.036.164l.05-.089c.039.011.052.046.26.009l-.048.121c.265-.317.268.313.837.093l-.09.19c.161-.255.263.331.307.039.26.208.17-.098.607.272.325.008.031-.02.724.257.421.258 1.596.564 2.861.295.634.388 1.289.019 2.275-.771.096.126.282.011.445.1.091-.043.014-.033.235.067l.031-.103c.336.424 1.304-2.04.225-2.869.08 0 .011.02.327-.174a3.055 3.055 0 00-.076.013c.073-.04.097-.178.363-.306l-.017-.04c.043-.055.077-.071.11-.068l.061-.1c-.069-.229-.242-.289-.897-.494a.272.272 0 00.011-.025c.072-.002.459.167.76.113.096-.07.076-.038.294-.184a7.286 7.286 0 00-.052-.163 2.056 2.056 0 01-.013.04c-.039.001-.06-.016-.04-.09-.027-.009-.054-.018-.082-.029.011-.022.01-.038 0-.048.004.01.751.17.342-.148.067-.074.664-.221.22-.395.472-.165-.104-.823-.576-1.042.321.241 1.03.004.129-.394.049.014.098.025.142.001l-.025-.067c.012-.029.023-.058.033-.088l.008.013c-.041-.159-.102-.395-.46-.506-.033-.086-.034.002-.057-.013l-.001-.016c-.611-.361-1.472-.672-2.51-.763.04-.118.552.078.606-.622-.003.044.002.016-.02.099a.352.352 0 00-.012-.02l.032-.079c-.067-.069-.136.091-.437-.161.207-.318-.406-.165-.731-.283.012-.017.021-.019.08-.1l-.054-.1c.02-.171.532.172.51-.411.392.148-.388-.626-.312-1.289.224-.259 1.349.1 1.225-.944l-.025.061c.086-.007.168.011.328-.484-.322-.184-.332-.65-.994-.941.012.017.007.016.059.089-.071.031-.042-.003-.131-.204.005.235-.139-.118-.507-.085-.021-.004-.029.018-.128.004l-.111.083c-.013-.026.033-.044-.015-.167l-.021.099c-.04.001-.063-.029-.25.069l.009-.129c-.158.382-.349-.219-.826.161l.029-.208c-.078.291-.35-.237-.305.054-.31-.12-.133.144-.661-.078l-.003-.008.003.008c-.312.089-.024.028-.768-.029-.478-.121-1.691-.063-2.819.57-.721-.181-1.236.366-1.941 1.414-.129-.092-.272.074-.455.037-.074.068-.003.036-.245.007l.001.108c-.554.123-.173.481-.09 2.414zm1.843 8.044l-.004-.022.045-.029-.041.051zm.174.011l-.001-.028.012-.016c-.006.008.019.01-.011.044zm9.099-.404l.005-.005-.013.025.008-.02zm-.239 1.145c.003-.001.006.001.009.001l-.009.016a.04.04 0 01-.005-.009l.005-.008zm-.55.053c.005-.003.008.01.013.015l-.044.049c.003-.026-.014-.033.031-.064zm-1.431.738c-.002.001.004.007-.007.013l-.002-.007a.035.035 0 00.009-.006zm.022-10.42a.126.126 0 01.003.01c-.002-.002.001.015-.008.005l.005-.015zm-.057-3.426a.186.186 0 01.01.02l-.034.041.024-.061zm-.169.041a.277.277 0 00.01.026l-.007.019c.003-.009-.022-.003-.003-.045zm-.381 4.214l.017.039-.02.025c.005-.01-.022-.016.003-.064zm-.057.017a.018.018 0 00.004.005l-.014.034.01-.039zm-1.518-4.481c.002-.001.006.017.009.026-.005-.007-.013.052-.03 0 .009-.012.015-.023.021-.026zm-.266.054l-.002.005-.001-.006.003.001zm-.92-.143l-.015.033-.003-.008a.195.195 0 01.018-.025zm-.611 13.844l.001.009-.025.018a2.61 2.61 0 01.024-.027zm-.857-.388l-.001.006-.003-.002.004-.004zm-.251-.067c.002-.001.002.013.004.025-.004-.007-.034.05-.028-.009.008-.005.016-.013.024-.016zm-1.016-4.085c.001.002.004-.015.009-.003l-.01.013.001-.01zm-1.145-8.392l.004.006-.006.008c.001-.001-.007-.005.002-.014zm-1.136 1.075c.005.004.026.077-.027.06a.848.848 0 01.027-.06zm-.404 1.427c-.002.005.004.006-.005.028l.005-.028zm-.122-1.159l.008.007c-.003.001.004.011-.012.011l.004-.018z" data-color="1" class="icon1"></path><path d="M179.426 161.31c-.39-5.381-.698-10.791-2.793-17.048l-.028-.016c-.035-.095.119-.036-.042-.218-.096-.329-.246-1.387-1.039-2.057l.026.038a1.25 1.25 0 00-.142.059 7.506 7.506 0 00-.126-.14c-.026.144.01.333.051.525.041-.662-1.843-4.267-.643.198.021.138-1.461-4.794-2.078-3.13.069-.147-.387-.676-.432-.129-.125-.291.22-4.52-1.294-3.04.378-1.195-.378-1.235-1.294-.299.116-1.027-.581-1.064-.997.841a.153.153 0 00-.108-.149l.095-.389c-.208-.153-.204-.281-.126-.419l.115.072a27.487 27.487 0 00-.263-.676c-.215-.131-.386.402-.983.52-.53 1.105-.499.487-1.023 2.822a2.235 2.235 0 00-.056-.139c-.116-.705.647-.544.436-4.286a9.559 9.559 0 00-.338-.061c-.059.12-.16.196-.366.193l-.052-.166c-.436.257-.223.377-1.076.37-.233-.456-.178-3.217-1.735-1.099.72-2.167-.277-1.855-2.224-.136-.051-4.717-4.063 6.875-3.249.057l-.056.004-.118.126-.047-.013-.045-.3a6.235 6.235 0 00-.39-.022c-.047.15-.199.013-.287.076l.021.05c-4.007 4.919-6.709 12.232-7.711 20.859l.034.049c-.006.131-.208-.109-.073.257-.113.542-.421 1.847.322 3.192l-.016-.067c.085.042.173.081.259.115.046.124.074.197.108.284.133-.106.196-.329.255-.561-.557 1.311.446 5.676 1.131.59-.086-.383-.516 6.798 1.335 5.128-.342 1.215.416 1.215 1.3.234-.084 1.043.612 1.023.972-.892a.15.15 0 00.112.144c-.028.137-.056.265-.084.394.212.142.212.271.137.413l-.117-.066c.097.239.191.457.281.663.218.12.375-.423.966-.57.493-1.116.484-.519.939-2.854a.466.466 0 00.105-.117c.128.88-.543-.267-.358 4.543.112.017.225.032.339.045.055-.123.154-.204.359-.211l.057.163c.075-.06.039-.034.274-.221.398.556.184 2.323 1.658.595-.785 2.128.221 1.866 2.222.247-.086 4.699 4.26-6.636 3.253.106l.056-.001.122-.12.047.015.037.302c.152.021.27.033.389.042.051-.147.199-.003.289-.062l-.02-.051c.075-.086.456.058.755-.326-.008.112.115.067.06.562l-.015-.007.015.007c.185.148.446 1.439.68 2.435-.597.071.56.252.173 1.163l.301-.199-.013.01c-.521.567.847 1.916.461 3.147l.194-.091c.03.205-.072.204.104.966a7.89 7.89 0 00-.137.121c.096.041.062.095.273-.016l-.036.453c.049.184.044.118.103.48v.001c.128.489.36.914.561 1.857.03.156.379-.043.43.401-.033-.029-.033-.045-.188-.182.101.804 1.161 1.625 2.31 3.304.098-.294.582-.26.479-1.438l-.075.119c1.599-.923.697-.347.438-4.988.487-.832 2.366 1.461 2.276.605.721-.512.339-.124.21-2.086.041.033.029.021.202.159.036-.128.031-.093.089-.343.201.357-.016.142.337.968.111.024-.069 1.697.722 1.639.427.597.121.074.619 1.561l.096-.153.042.034c-.034.017-.002.042-.138.119a.568.568 0 00.038-.013c.474-.29.799-.205.068-4.843.229-.943-.205-.635-.578-5.017.329 1.749.678 1.11.971-1.102 1.374 2.914-.217-7.011 1.352-1.79.038-.074.018-.016.037-.185a.195.195 0 00.023-.017l.104.185c.068-.072.119-.132.171-.194-.023-.13.08-.116.099-.208a.58.58 0 01-.023-.024c.232-.643.272-.267.137-1.68zm-12.604 5.362l-.004-.011.011.001-.007.01zm.189 1.042c-.032-.028-.074-.002-.026-.111.03.033.067.013.026.111zm2.043 7.195l-.048-.024c.014.005.006-.076.072-.01a.386.386 0 00-.024.034zm.069.657a4.798 4.798 0 01-.04-.031l.074-.115-.034.146zm5.374-1.305l-.018-.006.019-.026c-.003.005.024.007-.001.032zm.754-2.843l-.011-.011.052-.055-.041.066zm.085.253l-.076-.045c.023-.023.007-.075.098-.041a1.393 1.393 0 01-.022.086zm1.671-1.503c.014.019.048.014.008.065.004-.013-.039-.007-.008-.065z" data-color="1" class="icon1"></path></g></g>
</svg>
</g></svg></svg>